<mxfile host="app.diagrams.net" modified="2021-01-27T16:03:39.792Z" agent="5.0 (X11; Linux x86_64) AppleWebKit/537.36 (KHTML, like Gecko) Chrome/88.0.4324.96 Safari/537.36" etag="Jb8eajb3aKh-Ql2VCzm4" version="14.2.7" type="github">
  <diagram id="C5RBs43oDa-KdzZeNtuy" name="Page-1">
    <mxGraphModel dx="868" dy="494" grid="1" gridSize="10" guides="1" tooltips="1" connect="1" arrows="1" fold="1" page="1" pageScale="1" pageWidth="827" pageHeight="1169" math="0" shadow="0">
      <root>
        <mxCell id="WIyWlLk6GJQsqaUBKTNV-0" />
        <mxCell id="WIyWlLk6GJQsqaUBKTNV-1" parent="WIyWlLk6GJQsqaUBKTNV-0" />
        <mxCell id="elAJH4Ci4I3CKzlhjMAJ-13" style="edgeStyle=orthogonalEdgeStyle;rounded=0;orthogonalLoop=1;jettySize=auto;html=1;exitX=0.5;exitY=1;exitDx=0;exitDy=0;entryX=0.5;entryY=0;entryDx=0;entryDy=0;strokeColor=#3f3742;" edge="1" parent="WIyWlLk6GJQsqaUBKTNV-1" source="elAJH4Ci4I3CKzlhjMAJ-0" target="elAJH4Ci4I3CKzlhjMAJ-1">
          <mxGeometry relative="1" as="geometry" />
        </mxCell>
        <mxCell id="elAJH4Ci4I3CKzlhjMAJ-0" value="&lt;font face=&quot;Livvic&quot; data-font-src=&quot;https://fonts.googleapis.com/css?family=Livvic&quot; style=&quot;font-size: 12px&quot;&gt;Mulai&lt;/font&gt;" style="ellipse;whiteSpace=wrap;html=1;strokeColor=#3f3742;fillColor=none;" vertex="1" parent="WIyWlLk6GJQsqaUBKTNV-1">
          <mxGeometry x="580" y="90" width="60" height="40" as="geometry" />
        </mxCell>
        <mxCell id="elAJH4Ci4I3CKzlhjMAJ-14" style="edgeStyle=orthogonalEdgeStyle;rounded=0;orthogonalLoop=1;jettySize=auto;html=1;exitX=0.5;exitY=1;exitDx=0;exitDy=0;entryX=0.5;entryY=0;entryDx=0;entryDy=0;strokeColor=#3f3742;" edge="1" parent="WIyWlLk6GJQsqaUBKTNV-1" source="elAJH4Ci4I3CKzlhjMAJ-1" target="elAJH4Ci4I3CKzlhjMAJ-2">
          <mxGeometry relative="1" as="geometry" />
        </mxCell>
        <mxCell id="elAJH4Ci4I3CKzlhjMAJ-1" value="&lt;font face=&quot;Livvic&quot; data-font-src=&quot;https://fonts.googleapis.com/css?family=Livvic&quot;&gt;Studi Literatur&lt;/font&gt;" style="rounded=0;whiteSpace=wrap;html=1;strokeColor=#3f3742;fillColor=none;" vertex="1" parent="WIyWlLk6GJQsqaUBKTNV-1">
          <mxGeometry x="540" y="150" width="140" height="30" as="geometry" />
        </mxCell>
        <mxCell id="elAJH4Ci4I3CKzlhjMAJ-15" style="edgeStyle=orthogonalEdgeStyle;rounded=0;orthogonalLoop=1;jettySize=auto;html=1;exitX=0.5;exitY=1;exitDx=0;exitDy=0;entryX=0.5;entryY=0;entryDx=0;entryDy=0;strokeColor=#3f3742;" edge="1" parent="WIyWlLk6GJQsqaUBKTNV-1" source="elAJH4Ci4I3CKzlhjMAJ-2" target="elAJH4Ci4I3CKzlhjMAJ-5">
          <mxGeometry relative="1" as="geometry" />
        </mxCell>
        <mxCell id="elAJH4Ci4I3CKzlhjMAJ-2" value="&lt;font face=&quot;Livvic&quot; data-font-src=&quot;https://fonts.googleapis.com/css?family=Livvic&quot;&gt;Penentuan Pemodelan&lt;/font&gt;" style="rounded=0;whiteSpace=wrap;html=1;strokeColor=#3f3742;fillColor=none;" vertex="1" parent="WIyWlLk6GJQsqaUBKTNV-1">
          <mxGeometry x="540" y="200" width="140" height="30" as="geometry" />
        </mxCell>
        <mxCell id="elAJH4Ci4I3CKzlhjMAJ-16" style="edgeStyle=orthogonalEdgeStyle;rounded=0;orthogonalLoop=1;jettySize=auto;html=1;exitX=0.5;exitY=1;exitDx=0;exitDy=0;entryX=0.5;entryY=0;entryDx=0;entryDy=0;strokeColor=#3f3742;" edge="1" parent="WIyWlLk6GJQsqaUBKTNV-1" source="elAJH4Ci4I3CKzlhjMAJ-5" target="elAJH4Ci4I3CKzlhjMAJ-6">
          <mxGeometry relative="1" as="geometry" />
        </mxCell>
        <mxCell id="elAJH4Ci4I3CKzlhjMAJ-5" value="&lt;font face=&quot;Livvic&quot; data-font-src=&quot;https://fonts.googleapis.com/css?family=Livvic&quot;&gt;Perakitan Hardware &amp;amp; Pembuatan Software&lt;/font&gt;" style="rounded=0;whiteSpace=wrap;html=1;strokeColor=#3f3742;fillColor=none;" vertex="1" parent="WIyWlLk6GJQsqaUBKTNV-1">
          <mxGeometry x="540" y="250" width="140" height="40" as="geometry" />
        </mxCell>
        <mxCell id="elAJH4Ci4I3CKzlhjMAJ-17" style="edgeStyle=orthogonalEdgeStyle;rounded=0;orthogonalLoop=1;jettySize=auto;html=1;exitX=0.5;exitY=1;exitDx=0;exitDy=0;entryX=0.5;entryY=0;entryDx=0;entryDy=0;strokeColor=#3f3742;" edge="1" parent="WIyWlLk6GJQsqaUBKTNV-1" source="elAJH4Ci4I3CKzlhjMAJ-6" target="elAJH4Ci4I3CKzlhjMAJ-7">
          <mxGeometry relative="1" as="geometry" />
        </mxCell>
        <mxCell id="elAJH4Ci4I3CKzlhjMAJ-20" style="edgeStyle=orthogonalEdgeStyle;rounded=0;orthogonalLoop=1;jettySize=auto;html=1;exitX=0;exitY=0.5;exitDx=0;exitDy=0;entryX=0;entryY=0.5;entryDx=0;entryDy=0;strokeColor=#3f3742;" edge="1" parent="WIyWlLk6GJQsqaUBKTNV-1" source="elAJH4Ci4I3CKzlhjMAJ-6" target="elAJH4Ci4I3CKzlhjMAJ-5">
          <mxGeometry relative="1" as="geometry" />
        </mxCell>
        <mxCell id="elAJH4Ci4I3CKzlhjMAJ-6" value="&lt;font face=&quot;Livvic&quot; data-font-src=&quot;https://fonts.googleapis.com/css?family=Livvic&quot;&gt;Alat&lt;br&gt;Berfungsi ?&lt;/font&gt;" style="rhombus;whiteSpace=wrap;html=1;strokeColor=#3f3742;fillColor=none;" vertex="1" parent="WIyWlLk6GJQsqaUBKTNV-1">
          <mxGeometry x="560" y="310" width="100" height="70" as="geometry" />
        </mxCell>
        <mxCell id="elAJH4Ci4I3CKzlhjMAJ-18" style="edgeStyle=orthogonalEdgeStyle;rounded=0;orthogonalLoop=1;jettySize=auto;html=1;exitX=0.5;exitY=1;exitDx=0;exitDy=0;entryX=0.5;entryY=0;entryDx=0;entryDy=0;strokeColor=#3f3742;" edge="1" parent="WIyWlLk6GJQsqaUBKTNV-1" source="elAJH4Ci4I3CKzlhjMAJ-7" target="elAJH4Ci4I3CKzlhjMAJ-8">
          <mxGeometry relative="1" as="geometry" />
        </mxCell>
        <mxCell id="elAJH4Ci4I3CKzlhjMAJ-7" value="&lt;font face=&quot;Livvic&quot; data-font-src=&quot;https://fonts.googleapis.com/css?family=Livvic&quot;&gt;Analisis Data&lt;/font&gt;" style="rounded=0;whiteSpace=wrap;html=1;strokeColor=#3f3742;fillColor=none;" vertex="1" parent="WIyWlLk6GJQsqaUBKTNV-1">
          <mxGeometry x="540" y="400" width="140" height="30" as="geometry" />
        </mxCell>
        <mxCell id="elAJH4Ci4I3CKzlhjMAJ-19" style="edgeStyle=orthogonalEdgeStyle;rounded=0;orthogonalLoop=1;jettySize=auto;html=1;exitX=0.5;exitY=1;exitDx=0;exitDy=0;entryX=0.5;entryY=0;entryDx=0;entryDy=0;strokeColor=#3f3742;" edge="1" parent="WIyWlLk6GJQsqaUBKTNV-1" source="elAJH4Ci4I3CKzlhjMAJ-8" target="elAJH4Ci4I3CKzlhjMAJ-9">
          <mxGeometry relative="1" as="geometry" />
        </mxCell>
        <mxCell id="elAJH4Ci4I3CKzlhjMAJ-8" value="&lt;font face=&quot;Livvic&quot; data-font-src=&quot;https://fonts.googleapis.com/css?family=Livvic&quot;&gt;Penarikan Kesimpulan&lt;/font&gt;" style="rounded=0;whiteSpace=wrap;html=1;strokeColor=#3f3742;fillColor=none;" vertex="1" parent="WIyWlLk6GJQsqaUBKTNV-1">
          <mxGeometry x="540" y="450" width="140" height="30" as="geometry" />
        </mxCell>
        <mxCell id="elAJH4Ci4I3CKzlhjMAJ-9" value="&lt;font face=&quot;Livvic&quot; data-font-src=&quot;https://fonts.googleapis.com/css?family=Livvic&quot; style=&quot;font-size: 12px&quot;&gt;Selesai&lt;/font&gt;" style="ellipse;whiteSpace=wrap;html=1;strokeColor=#3f3742;fillColor=none;" vertex="1" parent="WIyWlLk6GJQsqaUBKTNV-1">
          <mxGeometry x="580" y="500" width="60" height="40" as="geometry" />
        </mxCell>
        <mxCell id="elAJH4Ci4I3CKzlhjMAJ-21" value="&lt;font face=&quot;Livvic&quot; data-font-src=&quot;https://fonts.googleapis.com/css?family=Livvic&quot;&gt;Ya&lt;/font&gt;" style="text;html=1;strokeColor=none;fillColor=none;align=center;verticalAlign=middle;whiteSpace=wrap;rounded=0;" vertex="1" parent="WIyWlLk6GJQsqaUBKTNV-1">
          <mxGeometry x="620" y="370" width="40" height="20" as="geometry" />
        </mxCell>
        <mxCell id="elAJH4Ci4I3CKzlhjMAJ-22" value="&lt;font face=&quot;Livvic&quot; data-font-src=&quot;https://fonts.googleapis.com/css?family=Livvic&quot;&gt;Tidak&lt;/font&gt;" style="text;html=1;strokeColor=none;fillColor=none;align=center;verticalAlign=middle;whiteSpace=wrap;rounded=0;" vertex="1" parent="WIyWlLk6GJQsqaUBKTNV-1">
          <mxGeometry x="470" y="300" width="40" height="20" as="geometry" />
        </mxCell>
      </root>
    </mxGraphModel>
  </diagram>
</mxfile>
